<svg width="783" height="250" viewBox="0 0 783 250" fill="none" xmlns="http://www.w3.org/2000/svg">
<path fill-rule="evenodd" clip-rule="evenodd" d="M136.3 216.29H245.262L190.779 119.999L136.3 216.29Z" fill="#8B1C40"/>
<path fill-rule="evenodd" clip-rule="evenodd" d="M0 216.29L122.881 0L177.46 96.4614L109.665 216.29H0Z" fill="#F18A20"/>
<path fill-rule="evenodd" clip-rule="evenodd" d="M279.75 33.4678L170.834 33.4678L293.215 249.758L347.781 153.712L279.75 33.4678Z" fill="#8DB9CA"/>
<path fill-rule="evenodd" clip-rule="evenodd" d="M361.126 130.223L416.095 33.4678L306.385 33.4678L361.126 130.223Z" fill="#8B1C40"/>
<path d="M460.411 216.648C467.485 216.648 471.805 214.056 475.747 209.952L471.481 205.632C468.241 208.656 465.271 210.492 460.627 210.492C453.391 210.492 448.153 204.498 448.153 197.1V196.992C448.153 189.594 453.445 183.654 460.627 183.654C464.947 183.654 468.187 185.544 471.211 188.352L475.477 183.438C471.859 179.982 467.647 177.552 460.681 177.552C449.233 177.552 441.187 186.354 441.187 197.1V197.208C441.187 208.062 449.395 216.648 460.411 216.648Z" fill="#8DB9CA"/>
<path d="M505.649 216.648C517.259 216.648 525.467 207.738 525.467 197.1V196.992C525.467 186.354 517.367 177.552 505.757 177.552C494.147 177.552 485.939 186.462 485.939 197.1V197.208C485.939 207.846 494.039 216.648 505.649 216.648ZM505.757 210.492C498.251 210.492 492.905 204.444 492.905 197.1V196.992C492.905 189.648 498.143 183.654 505.649 183.654C513.155 183.654 518.501 189.756 518.501 197.1V197.208C518.501 204.552 513.263 210.492 505.757 210.492Z" fill="#8DB9CA"/>
<path d="M539.432 216H565.946V209.952H546.074V178.2H539.432V216Z" fill="#8DB9CA"/>
<path d="M578.806 216H605.32V209.952H585.448V178.2H578.806V216Z" fill="#8DB9CA"/>
<path d="M618.179 216H646.475V210.06H624.821V199.908H643.775V193.968H624.821V184.14H646.205V178.2H618.179V216Z" fill="#8DB9CA"/>
<path d="M678.223 216.648C684.919 216.648 690.265 213.948 693.991 210.762V194.886H677.899V200.664H687.565V207.738C685.243 209.466 682.003 210.6 678.439 210.6C670.717 210.6 665.587 204.876 665.587 197.1V196.992C665.587 189.756 670.879 183.654 677.845 183.654C682.651 183.654 685.513 185.22 688.429 187.704L692.641 182.682C688.753 179.388 684.703 177.552 678.115 177.552C666.721 177.552 658.621 186.516 658.621 197.1V197.208C658.621 208.224 666.397 216.648 678.223 216.648Z" fill="#8DB9CA"/>
<path d="M708.581 216H736.877V210.06H715.223V199.908H734.177V193.968H715.223V184.14H736.607V178.2H708.581V216Z" fill="#8DB9CA"/>
<path d="M455.334 151.27H461.22L476.88 113.2H469.698L458.358 142.252L446.964 113.2H439.62L455.334 151.27Z" fill="#8B1C40"/>
<path d="M480.681 151H487.485L491.373 141.874H509.247L513.081 151H520.101L503.469 112.93H497.313L480.681 151ZM493.803 135.988L500.283 120.868L506.817 135.988H493.803Z" fill="#8B1C40"/>
<path d="M532.523 151H559.037V144.952H539.165V113.2H532.523V151Z" fill="#8B1C40"/>
<path d="M571.897 151H598.411V144.952H578.539V113.2H571.897V151Z" fill="#8B1C40"/>
<path d="M611.271 151H639.567V145.06H617.913V134.908H636.867V128.968H617.913V119.14H639.297V113.2H611.271V151Z" fill="#8B1C40"/>
<path d="M664.51 151H671.206V135.934L686.218 113.2H678.604L667.912 129.886L657.382 113.2H649.498L664.51 136.096V151Z" fill="#8B1C40"/>
<path d="M439.62 85.9998H446.424L450.312 76.8738H468.186L472.02 85.9998H479.04L462.408 47.9298H456.252L439.62 85.9998ZM452.742 70.9878L459.222 55.8678L465.756 70.9878H452.742Z" fill="#8B1C40"/>
<path d="M491.462 85.9998H497.996V59.1078L518.84 85.9998H524.402V48.1998H517.868V74.3358L497.618 48.1998H491.462V85.9998Z" fill="#8B1C40"/>
<path d="M549.352 85.9998H556.048V54.3558H568.036V48.1998H537.364V54.3558H549.352V85.9998Z" fill="#8B1C40"/>
<path d="M581.02 85.9998H609.316V80.0598H587.662V69.9078H606.616V63.9678H587.662V54.1398H609.046V48.1998H581.02V85.9998Z" fill="#8B1C40"/>
<path d="M623.136 85.9998H649.65V79.9518H629.778V48.1998H623.136V85.9998Z" fill="#8B1C40"/>
<path d="M678.383 86.6478C689.993 86.6478 698.201 77.7378 698.201 67.0998V66.9918C698.201 56.3538 690.101 47.5518 678.491 47.5518C666.881 47.5518 658.673 56.4618 658.673 67.0998V67.2078C658.673 77.8458 666.773 86.6478 678.383 86.6478ZM678.491 80.4918C670.985 80.4918 665.639 74.4438 665.639 67.0998V66.9918C665.639 59.6478 670.877 53.6538 678.383 53.6538C685.889 53.6538 691.235 59.7558 691.235 67.0998V67.2078C691.235 74.5518 685.997 80.4918 678.491 80.4918Z" fill="#8B1C40"/>
<path d="M712.166 85.9998H718.808V73.8498H726.314C734.63 73.8498 741.434 69.4218 741.434 60.9438V60.8358C741.434 53.2218 735.926 48.1998 727.07 48.1998H712.166V85.9998ZM718.808 67.8558V54.2478H726.53C731.498 54.2478 734.684 56.5698 734.684 60.9978V61.1058C734.684 65.0478 731.552 67.8558 726.53 67.8558H718.808Z" fill="#8B1C40"/>
<path d="M754.176 85.9998H782.472V80.0598H760.818V69.9078H779.772V63.9678H760.818V54.1398H782.202V48.1998H754.176V85.9998Z" fill="#8B1C40"/>
</svg>
